<svg width="264" height="264" viewBox="0 0 264 264" fill="none" xmlns="http://www.w3.org/2000/svg">
<path d="M17.4546 134.182V200.727C17.4546 214.585 28.6882 225.818 42.5455 225.818H111.273" stroke="white" stroke-width="16.3636"/>
<path d="M246.546 106.909V76.3636C246.546 49.2515 224.567 27.2727 197.455 27.2727H66.5455C39.4333 27.2727 17.4546 49.2514 17.4546 76.3636V106.909" stroke="white" stroke-width="16.3636"/>
<mask id="path-3-inside-1_140_103" fill="white">
<path fill-rule="evenodd" clip-rule="evenodd" d="M29.4546 108C29.4546 83.2978 49.4797 63.2727 74.1819 63.2727H189.818C214.52 63.2727 234.546 83.2978 234.546 108V138.545C234.546 163.248 214.52 183.273 189.818 183.273H74.1819C49.4797 183.273 29.4546 163.248 29.4546 138.545V108ZM114.545 120.545C114.545 130.487 106.487 138.545 96.5455 138.545C86.6043 138.545 78.5455 130.487 78.5455 120.545C78.5455 110.604 86.6043 102.545 96.5455 102.545C106.487 102.545 114.545 110.604 114.545 120.545ZM167.455 138.545C177.396 138.545 185.455 130.487 185.455 120.545C185.455 110.604 177.396 102.545 167.455 102.545C157.513 102.545 149.455 110.604 149.455 120.545C149.455 130.487 157.513 138.545 167.455 138.545Z"/>
</mask>
<path fill-rule="evenodd" clip-rule="evenodd" d="M29.4546 108C29.4546 83.2978 49.4797 63.2727 74.1819 63.2727H189.818C214.52 63.2727 234.546 83.2978 234.546 108V138.545C234.546 163.248 214.52 183.273 189.818 183.273H74.1819C49.4797 183.273 29.4546 163.248 29.4546 138.545V108ZM114.545 120.545C114.545 130.487 106.487 138.545 96.5455 138.545C86.6043 138.545 78.5455 130.487 78.5455 120.545C78.5455 110.604 86.6043 102.545 96.5455 102.545C106.487 102.545 114.545 110.604 114.545 120.545ZM167.455 138.545C177.396 138.545 185.455 130.487 185.455 120.545C185.455 110.604 177.396 102.545 167.455 102.545C157.513 102.545 149.455 110.604 149.455 120.545C149.455 130.487 157.513 138.545 167.455 138.545Z" fill="white"/>
<path d="M74.1819 46.9091C40.4423 46.9091 13.091 74.2604 13.091 108H45.8182C45.8182 92.3352 58.5171 79.6363 74.1819 79.6363V46.9091ZM189.818 46.9091H74.1819V79.6363H189.818V46.9091ZM250.909 108C250.909 74.2604 223.558 46.9091 189.818 46.9091V79.6363C205.483 79.6363 218.182 92.3352 218.182 108H250.909ZM250.909 138.545V108H218.182V138.545H250.909ZM189.818 199.636C223.558 199.636 250.909 172.285 250.909 138.545H218.182C218.182 154.21 205.483 166.909 189.818 166.909V199.636ZM74.1819 199.636H189.818V166.909H74.1819V199.636ZM13.091 138.545C13.091 172.285 40.4423 199.636 74.1819 199.636V166.909C58.5171 166.909 45.8182 154.21 45.8182 138.545H13.091ZM13.091 108V138.545H45.8182V108H13.091ZM96.5455 154.909C115.524 154.909 130.909 139.524 130.909 120.545H98.1818C98.1818 121.449 97.4492 122.182 96.5455 122.182V154.909ZM62.1818 120.545C62.1818 139.524 77.5669 154.909 96.5455 154.909V122.182C95.6417 122.182 94.9091 121.449 94.9091 120.545H62.1818ZM96.5455 86.1818C77.5669 86.1818 62.1818 101.567 62.1818 120.545H94.9091C94.9091 119.642 95.6417 118.909 96.5455 118.909V86.1818ZM130.909 120.545C130.909 101.567 115.524 86.1818 96.5455 86.1818V118.909C97.4492 118.909 98.1818 119.642 98.1818 120.545H130.909ZM169.091 120.545C169.091 121.449 168.358 122.182 167.455 122.182V154.909C186.433 154.909 201.818 139.524 201.818 120.545H169.091ZM167.455 118.909C168.358 118.909 169.091 119.642 169.091 120.545H201.818C201.818 101.567 186.433 86.1818 167.455 86.1818V118.909ZM165.818 120.545C165.818 119.642 166.551 118.909 167.455 118.909V86.1818C148.476 86.1818 133.091 101.567 133.091 120.545H165.818ZM167.455 122.182C166.551 122.182 165.818 121.449 165.818 120.545H133.091C133.091 139.524 148.476 154.909 167.455 154.909V122.182Z" fill="white" mask="url(#path-3-inside-1_140_103)"/>
<mask id="path-5-inside-2_140_103" fill="white">
<path d="M25.6365 141.818C19.9946 141.818 14.5838 139.577 10.5944 135.588C6.60495 131.598 4.36372 126.187 4.36372 120.545C4.36372 114.904 6.60495 109.493 10.5944 105.503C14.5838 101.514 19.9946 99.2727 25.6364 99.2727L25.6365 120.545V141.818Z"/>
</mask>
<path d="M25.6365 141.818C19.9946 141.818 14.5838 139.577 10.5944 135.588C6.60495 131.598 4.36372 126.187 4.36372 120.545C4.36372 114.904 6.60495 109.493 10.5944 105.503C14.5838 101.514 19.9946 99.2727 25.6364 99.2727L25.6365 120.545V141.818Z" stroke="white" stroke-width="32.7273" mask="url(#path-5-inside-2_140_103)"/>
<mask id="path-6-inside-3_140_103" fill="white">
<path d="M238.364 141.818C244.005 141.818 249.416 139.577 253.406 135.588C257.395 131.598 259.636 126.187 259.636 120.545C259.636 114.904 257.395 109.493 253.406 105.503C249.416 101.514 244.005 99.2727 238.364 99.2727L238.364 120.545V141.818Z"/>
</mask>
<path d="M238.364 141.818C244.005 141.818 249.416 139.577 253.406 135.588C257.395 131.598 259.636 126.187 259.636 120.545C259.636 114.904 257.395 109.493 253.406 105.503C249.416 101.514 244.005 99.2727 238.364 99.2727L238.364 120.545V141.818Z" stroke="white" stroke-width="32.7273" mask="url(#path-6-inside-3_140_103)"/>
<rect x="93" y="212" width="39" height="27" rx="7.63636" fill="white"/>
</svg>
